<?xml version="1.0" encoding="UTF-8"?>
<svg id="Layer_1" xmlns="http://www.w3.org/2000/svg" version="1.1" viewBox="0 0 512 512">
  <!-- Generator: Adobe Illustrator 30.3.0, SVG Export Plug-In . SVG Version: 2.1.3 Build 182)  -->
  <defs>
    <style>
      .st0 {
        fill: #fbfced;
      }

      .st1 {
        fill: #fff;
      }

      .st2 {
        fill: #ea8a0a;
      }

      .st3 {
        fill: #25313d;
      }
    </style>
  </defs>
  <path class="st1" d="M370.19,135.23c13.91-13.28,27.82-26.56,41.73-40.47,1.9-2.53,1.9-4.43,0-7.59s-8.85-8.85-12.01-11.38C315.81,1.81,196.93,2.44,111.57,74.52s-13.91,11.38-14.54,15.18,0,3.16,1.26,4.43l68.29,65.13c15.81-13.91,32.88-24.66,53.75-30.35,33.51-8.85,71.45-3.79,101.17,13.91,29.72,17.71,14.54,10.75,22.13,16.44,8.85-7.59,17.07-16.44,25.93-24.66,0,0,.63.63.63.63ZM364.5,204.78c-24.66-53.12-84.73-79.67-141.01-64.5-56.28,15.18-61.97,32.88-76.51,64.5,35.41-8.85,71.45-18.97,107.5-24.66,37.31,5.69,73.35,14.54,109.39,24.66h.63ZM381.57,243.99v-24.03c-3.16-1.9-6.96-2.53-10.75-3.79-30.98-8.85-65.76-17.71-98.01-23.4-32.25-5.69-12.65-2.53-17.07-2.53s-17.71,3.16-24.03,4.43c-34.15,6.96-68.29,15.81-101.8,25.29v23.4c-44.26-6.32-61.97,42.37-36.04,74.61,25.93,32.25,20.23,16.44,33.51,20.23-3.16,16.44-7.59,32.25-12.65,48.06-5.06,15.81-4.43,11.38-3.79,13.28,18.97,25.93,44.26,48.69,71.45,66.39,27.19,17.71,3.79,2.53,5.69,3.16v-15.81l24.03,17.71c11.38,6.96,23.4,14.54,36.04,20.23s6.32,3.16,8.22,3.16c2.53,0,13.91-5.69,16.44-7.59,10.12-5.06,20.23-11.38,29.72-17.71l20.87-15.81v15.81c1.9,0,3.79-1.9,5.69-2.53,27.82-17.07,53.12-40.47,72.72-67.03v-1.26c-7.59-19.6-12.65-39.84-17.07-60.07,29.72-5.69,50.59-32.88,44.26-63.23-6.32-30.35-25.93-36.04-47.42-30.35,0,0,0-.63,0-.63ZM58.45,340.1c-.63,0-1.9.63-2.53,1.26l-50.59,50.59c-1.9,2.53-3.16,5.06,0,7.59,12.65,12.65,25.29,25.29,37.94,37.31s12.65,13.28,14.54,14.54c5.06,1.9,10.12-5.69,12.65-9.48l-45.53-45.53,45.53-45.53v-1.9c0-.63-6.96-7.59-7.59-7.59-1.26-1.26-2.53-1.26-3.79-1.26h-.63ZM481.48,367.29c-9.48-8.85-18.97-18.34-27.82-27.19-4.43-1.26-9.48,6.32-12.65,9.48l46.16,46.16-45.53,45.53v1.26c0,.63,4.43,5.06,5.06,5.69,2.53,2.53,5.06,5.06,8.22,3.16s9.48-9.48,12.01-12.01c13.91-13.28,27.82-26.56,41.1-41.1,1.26-4.43-5.06-8.22-7.59-11.38-6.32-6.32-12.65-13.28-18.97-19.6h0Z"/>
  <path class="st3" d="M381.57,243.99c21.5-6.32,43,9.48,47.42,30.35,6.32,30.35-14.54,57.54-44.26,63.23,4.43,20.23,9.48,40.47,17.07,60.07v1.26c-19.6,25.93-44.9,49.32-72.72,67.03-27.82,17.71-3.79,2.53-5.69,2.53v-15.81l-20.87,15.81c-9.48,6.32-19.6,12.65-29.72,17.71-10.12,5.06-13.91,7.59-16.44,7.59s-6.32-2.53-8.22-3.16c-12.65-5.69-24.66-13.28-36.04-20.23l-24.03-17.71v15.81c-1.9-.63-4.43-1.9-5.69-3.16-27.19-17.07-52.48-40.47-71.45-66.39-.63-1.9,3.16-10.75,3.79-13.28,5.06-15.81,9.48-31.62,12.65-48.06-13.28-3.16-24.66-8.85-33.51-20.23-25.93-32.25-8.22-80.31,36.04-74.61v-23.4c33.51-9.48,67.66-18.34,101.8-25.29,34.15-6.96,17.71-4.43,24.03-4.43s12.65,1.9,17.07,2.53c31.62,5.69,67.03,14.54,98.01,23.4,30.98,8.85,7.59,1.9,10.75,3.79v24.66ZM356.28,260.43h-201.08v12.65c0,7.59,0,20.87,2.53,27.19,6.32,16.44,25.93,32.88,43,36.04-11.38,22.13-16.44,46.79-11.38,71.45,5.69-2.53,10.75-5.69,16.44-7.59,27.19-10.12,59.44-10.75,87.89-3.79,28.45,6.96,18.97,6.32,27.82,12.01,4.43-20.87,1.9-42.37-6.32-61.97-8.22-19.6-3.79-6.32-5.06-10.12,20.23-4.43,39.84-21.5,44.9-41.73,0,0,1.26-34.15,1.26-34.15ZM129.27,318.6l2.53-48.06c0-1.9-5.06-2.53-6.32-3.16-8.85-1.9-17.07,0-20.23,9.48-6.32,17.07,7.59,37.94,24.66,41.73,0,0-.63,0-.63,0ZM397.38,309.75c15.81-15.81,15.18-50.59-13.28-41.73-28.45,8.85-5.06,1.9-4.43,3.79l2.53,47.42c5.69-1.9,11.38-5.06,15.18-9.48ZM364.5,325.56l-10.75,9.48-14.54,10.12c8.22,29.72,9.48,61.34,1.26,90.42,0,0,5.06-3.16,5.69-3.79,13.28-10.12,25.29-22.76,34.78-36.04-6.96-22.76-14.54-46.16-17.07-70.19h.63ZM171.01,436.21c-7.59-29.09-6.32-61.34,1.9-90.42-4.43-3.16-8.85-5.69-13.28-8.85-4.43-3.16-7.59-7.59-10.75-10.12s0-.63-1.26,0c-3.16,24.03-9.48,47.42-17.71,69.56,10.12,13.28,20.87,25.29,34.15,35.41l6.96,5.06s0-.63,0-.63ZM317.07,419.14c-37.31-18.34-84.73-18.34-122.67,0,15.18,28.45,49.32,41.1,79.67,32.88,30.35-8.22,34.15-16.44,43-32.88Z"/>
  <path class="st3" d="M370.19,135.23c-8.85,8.22-17.07,16.44-25.93,24.66-6.96-5.69-13.91-11.38-22.13-16.44-29.72-17.71-67.66-22.76-101.17-13.91-33.51,8.85-37.94,16.44-53.75,30.35l-68.29-65.13c-.63-1.26-1.26-2.53-1.26-4.43,0-3.79,11.38-12.65,14.54-15.18C197.56,3.07,316.44,2.44,400.54,76.42c2.53,2.53,10.12,8.22,12.01,11.38s1.9,5.06,0,7.59c-13.91,13.28-27.82,27.19-41.73,40.47,0,0-.63-.63-.63-.63ZM252.58,106.14v-34.78c2.53,0,5.69-.63,7.59.63v34.15c12.01,0,24.03,2.53,36.04,5.69l14.54-21.5-6.96,24.03c15.18,4.43,29.09,12.65,41.1,22.13l48.06-45.53c-48.06-44.9-116.35-63.23-180.84-48.69-64.5,14.54-67.03,24.66-92.95,48.69l48.06,45.53c12.01-10.12,25.93-17.71,40.47-22.13l-6.32-23.4c1.26,0,1.26.63,1.9,1.26,4.43,6.32,8.85,13.28,12.65,19.6,12.01-3.79,24.03-5.69,36.67-5.69Z"/>
  <path class="st3" d="M364.5,204.78c-36.04-10.12-72.72-18.97-109.39-24.66-36.67,5.69-72.09,15.18-107.5,24.66,14.54-30.98,43-55.01,76.51-64.5,56.28-15.18,116.35,11.38,141.01,64.5h-.63Z"/>
  <path class="st1" d="M58.45,340.1c1.9,0,2.53,0,3.79,1.26s7.59,7.59,7.59,7.59v1.9l-45.53,45.53,45.53,45.53c-2.53,3.79-7.59,10.75-12.65,9.48-5.06-1.26-12.01-12.01-14.54-14.54-12.65-12.01-25.29-24.66-37.94-37.31-2.53-2.53-1.26-5.06,0-7.59l50.59-50.59c.63,0,1.26-1.26,2.53-1.26,0,0,.63,0,.63,0Z"/>
  <path class="st1" d="M481.48,367.29c6.32,6.32,12.65,13.28,18.97,19.6s8.85,6.32,7.59,11.38c-13.28,14.54-27.19,27.82-41.1,41.1s-9.48,10.75-12.01,12.01c-3.79,1.9-6.32-.63-8.22-3.16s-4.43-5.06-5.06-5.69v-1.26l45.53-45.53-46.16-46.16c3.16-2.53,8.22-10.75,12.65-9.48,9.48,8.85,18.97,17.71,27.82,27.19h0Z"/>
  <path class="st0" d="M356.28,260.43l-1.26,34.15c-5.06,20.87-24.03,37.31-44.9,41.73,1.26,3.16,3.16,6.32,5.06,10.12,8.85,19.6,10.75,41.1,6.32,61.97-8.22-5.69-17.71-9.48-27.82-12.01-27.82-7.59-60.7-6.32-87.89,3.79-27.19,10.12-11.38,5.06-16.44,7.59-5.06-24.66,0-49.32,11.38-71.45-17.71-3.16-37.31-19.6-43-36.04s-2.53-20.23-2.53-27.19v-12.65s201.08,0,201.08,0ZM339.84,273.07c-27.82,1.26-55.01,10.12-81.57,17.07-15.81-1.26-30.98-7.59-46.79-11.38-15.81-3.79-25.93-4.43-39.2-5.69-1.9,12.65,8.85,16.44,19.6,16.44.63,3.79,1.26,7.59,3.79,10.75,8.22,10.75,29.09,8.85,32.88-5.06,7.59,3.16,13.91,8.85,22.13,11.38,13.91,3.16,22.13-6.32,33.51-11.38,7.59,18.34,37.31,15.18,36.67-6.32,10.75,1.26,21.5-3.79,19.6-16.44l-.63.63ZM250.05,350.85c0-3.16,2.53-10.12.63-13.28s-10.75-11.38-12.01-12.01c-8.22-4.43-13.91,8.85-10.75,15.18s5.69,1.9,8.85,1.9,6.32,1.9,8.22,3.79l3.79,4.43h1.26ZM262.06,350.85c3.16-3.16,6.96-7.59,12.01-7.59s5.69,3.16,8.85-1.26c4.43-6.96-1.26-20.87-10.12-15.81-8.85,5.06-12.01,10.75-12.01,12.65-.63,3.79,1.26,8.85,1.9,12.01h-.63Z"/>
  <path class="st0" d="M317.07,419.14c-8.22,16.44-25.29,28.45-43,32.88-30.35,8.22-65.13-4.43-79.67-32.88,37.94-18.34,84.73-18.34,122.67,0Z"/>
  <path class="st2" d="M364.5,325.56c1.9,24.03,10.12,47.42,17.07,70.19-9.48,13.28-22.13,25.93-34.78,36.04-12.65,10.12-5.69,4.43-5.69,3.79,8.22-29.72,6.96-61.34-1.26-90.42l14.54-10.12,10.75-9.48s-.63,0-.63,0Z"/>
  <path class="st2" d="M171.01,436.21l-6.96-5.06c-13.28-10.12-24.03-22.13-34.15-35.41,8.22-22.76,14.54-46.16,17.71-69.56h1.26c3.16,1.9,6.96,6.96,10.75,10.12s8.85,5.69,13.28,8.85c-7.59,29.09-9.48,60.7-1.9,90.42,0,0,0,.63,0,.63Z"/>
  <path class="st0" d="M397.38,309.75c-4.43,3.79-10.12,6.96-15.18,9.48l-2.53-47.42c0-1.9,3.16-3.16,4.43-3.79,28.45-8.85,29.09,25.93,13.28,41.73Z"/>
  <path class="st0" d="M129.27,318.6c-17.07-3.79-30.35-24.66-24.66-41.73,5.69-17.07,11.38-11.38,20.23-9.48s5.69,1.26,6.32,3.16l-2.53,48.06s.63,0,.63,0Z"/>
  <path class="st2" d="M252.58,106.14c-12.65,0-24.66,1.9-36.67,5.69-3.79-6.32-8.22-13.28-12.65-19.6s0-1.9-1.9-1.26l6.32,23.4c-14.54,5.06-29.09,12.01-40.47,22.13l-48.06-45.53c25.93-24.03,58.17-41.1,92.95-48.69,64.5-13.91,132.79,3.79,180.84,48.69l-48.06,45.53c-12.01-10.12-25.93-17.71-41.1-22.13l6.96-24.03-14.54,21.5c-12.01-3.16-24.03-5.69-36.04-5.69v-34.15c-1.9-1.9-5.06,0-7.59-.63,0,0,0,34.78,0,34.78Z"/>
  <path class="st3" d="M339.84,273.07c1.9,12.01-9.48,17.07-19.6,16.44.63,20.87-29.09,24.66-36.67,6.32-11.38,5.06-19.6,14.54-33.51,11.38-13.91-3.16-14.54-8.22-22.13-11.38-3.79,13.91-24.03,16.44-32.88,5.06-8.85-11.38-2.53-6.96-3.79-10.75-10.12,0-21.5-4.43-19.6-16.44,13.28,1.26,26.56,3.16,39.2,5.69s30.98,9.48,46.79,11.38c27.19-6.96,53.75-15.81,81.57-17.07,0,0,.63-.63.63-.63Z"/>
  <path class="st3" d="M262.06,350.85c-.63-3.79-2.53-8.85-1.9-12.01s10.12-11.38,12.01-12.65c8.85-5.06,15.18,8.85,10.12,15.81s-5.69,1.26-8.85,1.26c-5.06,0-8.85,4.43-12.01,7.59h.63Z"/>
  <path class="st3" d="M250.05,350.85l-3.79-4.43c-1.9-1.9-5.69-3.79-8.22-3.79s-5.69,3.79-8.85-1.9,2.53-19.6,10.75-15.18c8.22,4.43,11.38,10.75,12.01,12.01,1.26,3.16-.63,10.12-.63,13.28h-1.26Z"/>
</svg>